<svg width="24" height="24" viewBox="0 0 24 24" fill="none" xmlns="http://www.w3.org/2000/svg">
<path d="M18.75 17.625L18.7501 20.25M18.75 17.625C19.7855 17.625 20.625 16.7855 20.625 15.75C20.625 14.7145 19.7855 13.875 18.75 13.875M18.75 17.625C17.7145 17.625 16.875 16.7855 16.875 15.75C16.875 14.7145 17.7145 13.875 18.75 13.875M5.25002 14.625L5.24994 20.25M5.25002 14.625C6.28555 14.625 7.125 13.7855 7.125 12.75C7.125 11.7145 6.28553 10.875 5.25 10.875M5.25002 14.625C4.21448 14.625 3.375 13.7855 3.375 12.75C3.375 11.7145 4.21447 10.875 5.25 10.875M18.75 13.875L18.7501 3.75M5.25 10.875L5.24994 3.75M12 10.125L12 20.25M12 10.125C13.0355 10.125 13.875 9.28553 13.875 8.25C13.875 7.21447 13.0355 6.375 12 6.375M12 10.125C10.9645 10.125 10.125 9.28553 10.125 8.25C10.125 7.21447 10.9645 6.375 12 6.375M12 6.375L12 3.75" stroke="#B1B1B1" stroke-width="1.5" stroke-linecap="round" stroke-linejoin="round"/>
</svg>
